<svg id="visual" viewBox="0 0 900 600" width="900" height="600" xmlns="http://www.w3.org/2000/svg" xmlns:xlink="http://www.w3.org/1999/xlink" version="1.1"><rect x="0" y="0" width="900" height="600" fill="#001220"></rect><defs><linearGradient id="grad1_0" x1="33.3%" y1="0%" x2="100%" y2="100%"><stop offset="20%" stop-color="#001220" stop-opacity="1"></stop><stop offset="80%" stop-color="#001220" stop-opacity="1"></stop></linearGradient></defs><defs><linearGradient id="grad2_0" x1="0%" y1="0%" x2="66.7%" y2="100%"><stop offset="20%" stop-color="#001220" stop-opacity="1"></stop><stop offset="80%" stop-color="#001220" stop-opacity="1"></stop></linearGradient></defs><g transform="translate(900, 0)"><path d="M0 486.7C-64.3 481.6 -128.5 476.5 -186.3 449.7C-244 422.9 -295.2 374.4 -320.3 320.3C-345.4 266.3 -344.3 206.6 -367.7 152.3C-391.1 98 -438.9 49 -486.7 0L0 0Z" fill="#fe810b"></path></g><g transform="translate(0, 600)"><path d="M0 -486.7C45.3 -435.8 90.6 -384.9 152.7 -368.6C214.8 -352.4 293.6 -370.9 344.2 -344.2C394.7 -317.5 417 -245.5 436.1 -180.6C455.1 -115.7 470.9 -57.9 486.7 0L0 0Z" fill="#fe810b"></path></g></svg>