<svg id="visual" viewBox="0 0 900 600" width="900" height="600" xmlns="http://www.w3.org/2000/svg" xmlns:xlink="http://www.w3.org/1999/xlink" version="1.1"><path d="M0 61L12.5 63C25 65 50 69 75 74C100 79 125 85 150 83C175 81 200 71 225 73C250 75 275 89 300 95C325 101 350 99 375 93C400 87 425 77 450 67C475 57 500 47 525 51C550 55 575 73 600 79C625 85 650 79 675 76C700 73 725 73 750 68C775 63 800 53 825 55C850 57 875 71 887.5 78L900 85L900 0L887.5 0C875 0 850 0 825 0C800 0 775 0 750 0C725 0 700 0 675 0C650 0 625 0 600 0C575 0 550 0 525 0C500 0 475 0 450 0C425 0 400 0 375 0C350 0 325 0 300 0C275 0 250 0 225 0C200 0 175 0 150 0C125 0 100 0 75 0C50 0 25 0 12.5 0L0 0Z" fill="#1f5696"></path><path d="M0 253L12.5 258C25 263 50 273 75 269C100 265 125 247 150 257C175 267 200 305 225 317C250 329 275 315 300 309C325 303 350 305 375 285C400 265 425 223 450 224C475 225 500 269 525 286C550 303 575 293 600 283C625 273 650 263 675 252C700 241 725 229 750 229C775 229 800 241 825 255C850 269 875 285 887.5 293L900 301L900 83L887.5 76C875 69 850 55 825 53C800 51 775 61 750 66C725 71 700 71 675 74C650 77 625 83 600 77C575 71 550 53 525 49C500 45 475 55 450 65C425 75 400 85 375 91C350 97 325 99 300 93C275 87 250 73 225 71C200 69 175 79 150 81C125 83 100 77 75 72C50 67 25 63 12.5 61L0 59Z" fill="#11447e"></path><path d="M0 415L12.5 421C25 427 50 439 75 431C100 423 125 395 150 389C175 383 200 399 225 413C250 427 275 439 300 435C325 431 350 411 375 388C400 365 425 339 450 345C475 351 500 389 525 410C550 431 575 435 600 421C625 407 650 375 675 366C700 357 725 371 750 384C775 397 800 409 825 414C850 419 875 417 887.5 416L900 415L900 299L887.5 291C875 283 850 267 825 253C800 239 775 227 750 227C725 227 700 239 675 250C650 261 625 271 600 281C575 291 550 301 525 284C500 267 475 223 450 222C425 221 400 263 375 283C350 303 325 301 300 307C275 313 250 327 225 315C200 303 175 265 150 255C125 245 100 263 75 267C50 271 25 261 12.5 256L0 251Z" fill="#003366"></path><path d="M0 463L12.5 468C25 473 50 483 75 485C100 487 125 481 150 479C175 477 200 479 225 487C250 495 275 509 300 513C325 517 350 511 375 486C400 461 425 417 450 414C475 411 500 449 525 473C550 497 575 507 600 502C625 497 650 477 675 463C700 449 725 441 750 442C775 443 800 453 825 465C850 477 875 491 887.5 498L900 505L900 413L887.5 414C875 415 850 417 825 412C800 407 775 395 750 382C725 369 700 355 675 364C650 373 625 405 600 419C575 433 550 429 525 408C500 387 475 349 450 343C425 337 400 363 375 386C350 409 325 429 300 433C275 437 250 425 225 411C200 397 175 381 150 387C125 393 100 421 75 429C50 437 25 425 12.5 419L0 413Z" fill="#002d58"></path><path d="M0 601L12.5 601C25 601 50 601 75 601C100 601 125 601 150 601C175 601 200 601 225 601C250 601 275 601 300 601C325 601 350 601 375 601C400 601 425 601 450 601C475 601 500 601 525 601C550 601 575 601 600 601C625 601 650 601 675 601C700 601 725 601 750 601C775 601 800 601 825 601C850 601 875 601 887.5 601L900 601L900 503L887.5 496C875 489 850 475 825 463C800 451 775 441 750 440C725 439 700 447 675 461C650 475 625 495 600 500C575 505 550 495 525 471C500 447 475 409 450 412C425 415 400 459 375 484C350 509 325 515 300 511C275 507 250 493 225 485C200 477 175 475 150 477C125 479 100 485 75 483C50 481 25 471 12.5 466L0 461Z" fill="#00274b"></path></svg>